<?xml version="1.0" encoding="UTF-8" standalone="no"?>
<!-- Created with Inkscape (http://www.inkscape.org/) -->

<svg
   width="172.55626mm"
   height="100.36775mm"
   viewBox="0 0 172.55626 100.36775"
   version="1.1"
   id="svg1"
   xml:space="preserve"
   xmlns:xlink="http://www.w3.org/1999/xlink"
   xmlns="http://www.w3.org/2000/svg"
   xmlns:svg="http://www.w3.org/2000/svg"><defs
     id="defs1"><linearGradient
       x1="0"
       y1="0"
       x2="1"
       y2="0"
       gradientUnits="userSpaceOnUse"
       gradientTransform="matrix(1974.88,6199.67,6199.67,-1974.88,11616.5,7471.3)"
       spreadMethod="pad"
       id="linearGradient52"><stop
         style="stop-opacity:1;stop-color:#ffffff"
         offset="0"
         id="stop51" /><stop
         style="stop-opacity:1;stop-color:#ffffff"
         offset="1"
         id="stop52" /></linearGradient><clipPath
       clipPathUnits="userSpaceOnUse"
       id="clipPath52"><path
         d="m 10855.2,12756.6 v 0 0 0 0 0"
         transform="translate(0,2.5000001e-4)"
         id="path52" /></clipPath><linearGradient
       x1="0"
       y1="0"
       x2="1"
       y2="0"
       gradientUnits="userSpaceOnUse"
       gradientTransform="matrix(3033.38,-1744.48,-1744.48,-3033.38,6414.04,13261.3)"
       spreadMethod="pad"
       id="linearGradient79"><stop
         style="stop-opacity:1;stop-color:#ffffff"
         offset="0"
         id="stop78" /><stop
         style="stop-opacity:1;stop-color:#ffffff"
         offset="1"
         id="stop79" /></linearGradient><clipPath
       clipPathUnits="userSpaceOnUse"
       id="clipPath79"><path
         d="m 9082.7,13102.9 v 0 0 h -0.04"
         transform="translate(0,2.5000001e-4)"
         id="path79" /></clipPath><linearGradient
       x1="0"
       y1="0"
       x2="1"
       y2="0"
       gradientUnits="userSpaceOnUse"
       gradientTransform="matrix(-816.679,4783.4,4783.4,816.679,5709.01,5897.9)"
       spreadMethod="pad"
       id="linearGradient101"><stop
         style="stop-opacity:1;stop-color:#223436"
         offset="0"
         id="stop100" /><stop
         style="stop-opacity:1;stop-color:#223436"
         offset="1"
         id="stop101" /></linearGradient><clipPath
       clipPathUnits="userSpaceOnUse"
       id="clipPath101"><path
         d="m 4752.45,9344.4 c -0.59,0 -1.17,0 -1.77,0 h 3.53 c -0.59,0 -1.17,0 -1.76,0"
         transform="translate(0,2.5000001e-4)"
         id="path101" /></clipPath><clipPath
       clipPathUnits="userSpaceOnUse"
       id="clipPath52-9"><path
         d="m 10855.2,12756.6 v 0 0 0 0 0"
         transform="translate(0,2.5000001e-4)"
         id="path52-3" /></clipPath><clipPath
       clipPathUnits="userSpaceOnUse"
       id="clipPath79-6"><path
         d="m 9082.7,13102.9 v 0 0 h -0.04"
         transform="translate(0,2.5000001e-4)"
         id="path79-1" /></clipPath><clipPath
       clipPathUnits="userSpaceOnUse"
       id="clipPath101-0"><path
         d="m 4752.45,9344.4 c -0.59,0 -1.17,0 -1.77,0 h 3.53 c -0.59,0 -1.17,0 -1.76,0"
         transform="translate(0,2.5000001e-4)"
         id="path101-3" /></clipPath><linearGradient
       xlink:href="#linearGradient52"
       id="linearGradient15"
       gradientUnits="userSpaceOnUse"
       gradientTransform="matrix(1974.88,6199.67,6199.67,-1974.88,11616.5,7471.3)"
       x1="0"
       y1="0"
       x2="1"
       y2="0"
       spreadMethod="pad" /><linearGradient
       xlink:href="#linearGradient79"
       id="linearGradient16"
       gradientUnits="userSpaceOnUse"
       gradientTransform="matrix(3033.38,-1744.48,-1744.48,-3033.38,6414.04,13261.3)"
       x1="0"
       y1="0"
       x2="1"
       y2="0"
       spreadMethod="pad" /><linearGradient
       xlink:href="#linearGradient101"
       id="linearGradient17"
       gradientUnits="userSpaceOnUse"
       gradientTransform="matrix(-816.679,4783.4,4783.4,816.679,5709.01,5897.9)"
       x1="0"
       y1="0"
       x2="1"
       y2="0"
       spreadMethod="pad" /></defs><g
     id="layer1"
     transform="translate(-18.014096,-86.671259)"><g
       id="group-R5"
       transform="matrix(0.20030713,0,0,0.20030713,-164.68209,68.615626)"><text
         xml:space="preserve"
         style="font-weight:bold;font-size:72.9299px;font-family:Calibri;-inkscape-font-specification:'Calibri Bold';text-align:start;writing-mode:lr-tb;direction:ltr;text-anchor:start;fill:#ff6600;fill-opacity:1;stroke-width:2.18792"
         x="910.03058"
         y="587.92688"
         id="text1"
         transform="scale(0.99631573,1.0036979)"><tspan
           style="font-style:normal;font-variant:normal;font-weight:bold;font-stretch:normal;font-family:Tahoma;-inkscape-font-specification:'Tahoma Bold';fill:#ff6600;fill-opacity:1;stroke-width:2.18792"
           x="910.03058"
           y="587.92688"
           id="tspan2">FLOORING &amp; PAINTING</tspan></text><text
         xml:space="preserve"
         style="font-style:normal;font-variant:normal;font-weight:bold;font-stretch:normal;font-size:209.587px;font-family:Tahoma;-inkscape-font-specification:'Tahoma Bold';text-align:start;writing-mode:lr-tb;direction:ltr;text-anchor:start;fill:#000000;fill-opacity:1;stroke-width:6.28764"
         x="901.38031"
         y="513.46075"
         id="text3"
         transform="scale(0.99631573,1.0036979)"><tspan
           id="tspan3"
           style="fill:#0b121f;fill-opacity:1;stroke-width:6.28764"
           x="901.38031"
           y="513.46075">MASTER</tspan></text><g
         id="group-R5-7"
         transform="matrix(0.63777424,0,0,0.63777424,411.95638,-211.72304)"><path
           id="path51"
           d="m 10855.2,12756.6 v 0 0 0 0 0"
           style="fill:url(#linearGradient1);fill-opacity:1;fill-rule:nonzero;stroke:none"
           transform="matrix(0.13333333,0,0,-0.13333333,0,2666.6667)"
           clip-path="url(#clipPath52)" /><path
           id="path78"
           d="m 9082.7,13102.9 v 0 0 h -0.04"
           style="fill:url(#linearGradient2);fill-opacity:1;fill-rule:nonzero;stroke:none"
           transform="matrix(0.13333333,0,0,-0.13333333,0,2666.6667)"
           clip-path="url(#clipPath79)" /><path
           id="path100"
           d="m 4752.45,9344.4 c -0.59,0 -1.17,0 -1.77,0 h 3.53 c -0.59,0 -1.17,0 -1.76,0"
           style="fill:url(#linearGradient3);fill-opacity:1;fill-rule:nonzero;stroke:none"
           transform="matrix(0.13333333,0,0,-0.13333333,0,2666.6667)"
           clip-path="url(#clipPath101)" /><g
           id="group-R5-8"
           transform="matrix(0.72268582,0,0,0.72268582,170.5314,25.540503)"><path
             id="path51-3"
             d="m 10855.2,12756.6 v 0 0 0 0 0"
             style="fill:url(#linearGradient15);fill-opacity:1;fill-rule:nonzero;stroke:none"
             transform="matrix(0.13333333,0,0,-0.13333333,0,2666.6667)"
             clip-path="url(#clipPath52-9)" /><path
             id="path78-7"
             d="m 9082.7,13102.9 v 0 0 h -0.04"
             style="fill:url(#linearGradient16);fill-opacity:1;fill-rule:nonzero;stroke:none"
             transform="matrix(0.13333333,0,0,-0.13333333,0,2666.6667)"
             clip-path="url(#clipPath79-6)" /><path
             id="path100-1"
             d="m 4752.45,9344.4 c -0.59,0 -1.17,0 -1.77,0 h 3.53 c -0.59,0 -1.17,0 -1.76,0"
             style="fill:url(#linearGradient17);fill-opacity:1;fill-rule:nonzero;stroke:none"
             transform="matrix(0.13333333,0,0,-0.13333333,0,2666.6667)"
             clip-path="url(#clipPath101-0)" /><g
             id="group-R5-4"
             transform="matrix(1.5342003,0,0,1.5342003,-475.87338,-994.01229)"><path
               id="path3"
               d="m 1975.2492,1101.8731 c 4.6478,17.8506 -37.1652,17.8506 -47.4311,17.6036 -3.1838,0.732 -1.9579,6.1119 0.979,6.3588 27.6225,4.154 38.6292,4.8948 66.2518,3.422 0,0 15.6545,-0.4939 9.0487,9.5338 -6.5969,10.2747 -16.8716,5.6268 -16.1396,8.0698 0.4939,2.69 3.422,4.4009 4.154,7.3378 0.7408,2.1961 -10.2659,2.1961 -9.04,5.1329 1.2259,1.9491 4.6391,2.69 3.9071,5.865 0.732,7.0908 -35.4543,8.0698 -53.296,11.9768 -4.154,2.2049 -4.154,4.4009 0,6.8527 19.0676,-3.4219 38.3823,-6.1119 56.2328,-2.4518 12.2238,8.3168 -22.0045,8.0698 -19.7996,14.9137 -0.9878,3.6689 13.6878,1.2259 11.9768,7.0997 -4.6479,1.9491 -6.8439,4.639 -6.1119,8.3079 0,0.979 64.7877,4.4009 62.8386,20.0467 -1.9579,10.7597 -23.9713,8.0698 -25.1883,7.5759 -23.9625,-1.4641 -43.5152,1.9579 -67.4777,0.4939 -8.8018,3.4219 -11.4918,7.5759 -9.0488,12.4707 17.1186,0.732 36.9183,-1.711 51.3469,1.9579 0.4851,6.5969 -24.2094,9.2869 -19.3234,14.9137 15.1694,2.443 31.3002,2.443 47.9249,0.9701 5.1329,0.4939 0.732,7.8317 -20.0466,15.4076 0.9789,3.175 13.9347,6.8439 10.0277,17.3567 -2.6899,4.4009 -38.3911,2.69 -57.4588,4.154 7.8229,8.3167 48.8951,0 52.3259,14.4286 0.2381,8.8018 -12.4707,4.4009 -17.3655,10.0278 -1.958,4.1539 15.4076,3.4219 16.8716,9.7807 -0.247,4.4009 -6.8439,4.4009 -10.0277,6.597 -2.443,8.0698 50.121,10.0189 75.3093,14.9137 5.618,20.2936 -85.5752,13.4497 -97.5608,13.4497 -2.4342,12.2237 21.5195,5.1329 32.2792,7.5759 4.886,6.1119 1.464,10.0277 -4.1628,11.2536 h -802.1695 v -292.171 l 780.1738,-1.2259"
               style="fill:#ff6600;fill-opacity:1;fill-rule:evenodd;stroke:none;stroke-width:0.0881946" /><path
               id="path4"
               d="m 1221.9695,1389.6432 124.6895,-189.4861 129.0913,92.9042 166.9876,-135.4404 107.571,93.8831 -16.8628,-20.2936 v -43.524 l 30.0743,-19.3146 32.7555,21.2725 0.4939,103.1789 113.4447,99.263 0.4851,10.5128 -689.2187,-0.732 0.4886,-12.2238"
               style="fill:#fdfdfd;fill-opacity:1;fill-rule:evenodd;stroke:none;stroke-width:0.0881946" /><path
               id="path5"
               d="m 1092.386,1096.4932 c 29.0972,-10.2658 58.6785,-12.2238 88.7538,0 v 298.036 c -29.3424,7.8228 -58.9237,7.8228 -88.7538,0 v -298.036 0"
               style="fill:#0b121f;fill-opacity:1;fill-rule:evenodd;stroke:none;stroke-width:0.0881946" /><path
               id="path6"
               d="m 1235.9051,1388.1703 17.3602,0.979 108.5508,-167.2258 -9.779,-8.3167 -116.132,174.5635"
               style="fill:#ff6600;fill-opacity:1;fill-rule:evenodd;stroke:none;stroke-width:0.0881946" /><path
               id="path7"
               d="m 1369.885,1200.651 104.4013,77.5054 97.0581,-79.4633 z"
               style="fill:#fdfdfd;fill-opacity:1;fill-rule:evenodd;stroke:none;stroke-width:0.0881946" /><path
               id="path8"
               d="m 1642.9849,1172.7815 -9.5339,9.5339 236.4233,204.6379 h 18.8207 l -245.7101,-214.1718"
               style="fill:#ff6600;fill-opacity:1;fill-rule:evenodd;stroke:none;stroke-width:0.0881946" /><path
               id="path9"
               d="m 2006.5406,1105.0481 c -4.1539,4.4009 -4.639,8.8018 -4.639,8.8018 -0.9878,2.6987 3.175,5.3799 8.8018,4.8948 2.9281,-1.9579 4.1451,-4.4009 3.4131,-7.8229 -1.2171,-3.175 -4.4009,-5.6268 -7.5759,-5.8737 v 0"
               style="fill:#ff6600;fill-opacity:1;fill-rule:evenodd;stroke:none;stroke-width:0.0881946" /><path
               id="path10"
               d="m 2019.7433,1125.5886 c -0.732,3.4219 -0.2469,5.3799 1.4729,6.3588 4.154,0.247 7.329,-0.732 10.0189,-2.2048 0.2469,-2.6812 -0.732,-4.886 -4.154,-6.3501 -3.1838,-0.4938 -5.6268,0.2382 -7.3378,2.1961 v 0"
               style="fill:#ff6600;fill-opacity:1;fill-rule:evenodd;stroke:none;stroke-width:0.0881946" /><path
               id="path11"
               d="m 2016.8153,1189.8913 c 1.9491,2.196 3.907,2.443 1.9491,6.1119 -1.9491,3.1838 -6.8439,4.4009 -10.7598,4.4009 -3.66,0 -7.5759,-3.422 -6.5969,-5.865 1.9579,-6.8527 12.2238,-8.8018 15.4076,-4.6478 v 0"
               style="fill:#ff6600;fill-opacity:1;fill-rule:evenodd;stroke:none;stroke-width:0.0881946" /><path
               id="path12"
               d="m 2030.018,1200.4041 c 0.2381,-4.886 2.1961,-8.3168 9.04,-9.2869 6.8439,-0.979 10.7597,0.9701 13.6966,3.907 2.928,2.9369 6.5969,3.9158 4.886,7.5759 -1.711,3.9159 -3.9159,5.8738 -7.3378,3.6689 -12.215,-7.8229 -20.5317,3.9158 -20.2848,-5.8649 v 0"
               style="fill:#ff6600;fill-opacity:1;fill-rule:evenodd;stroke:none;stroke-width:0.0881946" /><path
               id="path13"
               d="m 2037.347,1303.089 c 3.6689,3.1839 5.8737,3.1839 4.154,6.6058 -1.4641,3.422 -3.4132,5.1329 -7.0821,6.597 -7.0996,2.9368 -14.4286,-7.576 -12.2326,-10.2659 3.4308,-4.6478 10.5128,-7.5759 15.1607,-2.9369 v 0"
               style="fill:#ff6600;fill-opacity:1;fill-rule:evenodd;stroke:none;stroke-width:0.0881946" /><path
               id="path14"
               d="m 2052.9927,1315.8067 c 0,0 -4.4009,0 -2.9281,3.4219 1.7022,3.422 2.1961,4.4009 5.133,3.175 2.928,-1.2259 3.907,-3.175 3.175,-4.8859 -0.732,-1.711 -5.3799,-1.711 -5.3799,-1.711 v 0"
               style="fill:#ff6600;fill-opacity:1;fill-rule:evenodd;stroke:none;stroke-width:0.0881946" /><path
               id="path15"
               d="m 2019.4964,1337.8112 c 0,-0.9789 -3.175,-6.1118 4.8948,-8.8018 9.0399,-2.6899 16.3777,-1.4728 21.5107,8.0698 1.4728,2.443 0,8.5549 -1.9491,8.308 -1.7198,0 -7.8317,-3.422 -10.0278,-5.3799 -2.443,-1.9579 -4.4009,-0.979 -7.8228,0.2469 -3.1838,1.4641 -6.6058,-2.443 -6.6058,-2.443 v 0"
               style="fill:#ff6600;fill-opacity:1;fill-rule:evenodd;stroke:none;stroke-width:0.0881946" /><path
               id="path16"
               d="m 1125.1521,1091.6072 h 21.7567 v -39.8551 h -90.2187 l -22.4896,193.887 -34.96384,0.485 v 20.7787 l 48.16214,-0.732 22.9871,-195.1041 h 54.7662 v 20.5405"
               style="fill:#0b121f;fill-opacity:1;fill-rule:evenodd;stroke:none;stroke-width:0.0881946" /><path
               id="path17"
               d="m 1009.26,1237.5693 c 0,12.9558 0,26.1585 0,39.1143 l -118.57853,17.1185 c -35.69588,-12.9557 -35.94018,-57.9438 -1.46491,-72.3724 l 120.04344,16.1396"
               style="fill:#0b121f;fill-opacity:1;fill-rule:evenodd;stroke:none;stroke-width:0.0881946" /><path
               id="path18"
               d="m 877.47874,1264.7067 c 0,0 3.17941,14.9137 18.58084,15.6458 15.40583,0.732 79.70674,-8.308 79.70674,-8.308 -30.80725,-1.2259 -79.95104,2.9281 -98.28758,-7.3378 v 0"
               style="fill:#fdfdfd;fill-opacity:1;fill-rule:evenodd;stroke:none;stroke-width:0.0881946" /><path
               id="path19"
               d="m 1636.3791,1282.7955 c 0,9.7807 0,19.3146 0,29.3423 -9.7808,0 -19.5616,0 -29.3335,0 -2.2049,-19.3146 10.2658,-32.5174 29.3335,-29.3423 v 0"
               style="fill:#ff6600;fill-opacity:1;fill-rule:evenodd;stroke:none;stroke-width:0.0881946" /><path
               id="path20"
               d="m 1607.0456,1349.303 h 29.3335 v -29.3423 h -29.3335 v 29.3423"
               style="fill:#ff6600;fill-opacity:1;fill-rule:evenodd;stroke:none;stroke-width:0.0881946" /><path
               id="path21"
               d="m 1644.202,1349.303 h 29.3423 v -29.3423 h -29.3423 v 29.3423"
               style="fill:#ff6600;fill-opacity:1;fill-rule:evenodd;stroke:none;stroke-width:0.0881946" /><path
               id="path22"
               d="m 1644.6959,1282.7955 c 0,9.7807 0,19.3146 0,29.3423 9.7807,0 19.3146,0 29.0953,0 2.1961,-19.3146 -10.2658,-32.5174 -29.0953,-29.3423 v 0"
               style="fill:#ff6600;fill-opacity:1;fill-rule:evenodd;stroke:none;stroke-width:0.0881946" /><path
               id="path23"
               d="m 1370.1293,1305.779 c 0,8.3167 0,16.3865 0,24.6944 -8.3132,0 -16.6229,0 -24.6918,0 -1.9579,-16.1396 8.8027,-27.3844 24.6918,-24.6944 v 0"
               style="fill:#ff6600;fill-opacity:1;fill-rule:evenodd;stroke:none;stroke-width:0.0881946" /><path
               id="path24"
               d="m 1345.4375,1361.7649 h 24.6918 v -24.6857 h -24.6918 v 24.6857"
               style="fill:#ff6600;fill-opacity:1;fill-rule:evenodd;stroke:none;stroke-width:0.0881946" /><path
               id="path25"
               d="m 1376.7333,1361.7649 h 24.6954 v -24.6857 h -24.6954 v 24.6857"
               style="fill:#ff6600;fill-opacity:1;fill-rule:evenodd;stroke:none;stroke-width:0.0881946" /><path
               id="path26-9"
               d="m 1376.9776,1305.779 c 0,8.3167 0,16.3865 0,24.6944 8.3115,0 16.6194,0 24.6892,0 1.958,-16.1396 -8.8018,-27.3844 -24.6892,-24.6944 v 0"
               style="fill:#ff6600;fill-opacity:1;fill-rule:evenodd;stroke:none;stroke-width:0.0881946" /></g></g></g></g></g></svg>
