<?xml version="1.0" encoding="UTF-8" standalone="no"?>
<!-- Created with Inkscape (http://www.inkscape.org/) -->

<svg
   width="985.97272"
   height="573.49347"
   viewBox="0 0 260.87192 151.73681"
   version="1.1"
   id="svg1"
   xml:space="preserve"
   xmlns:xlink="http://www.w3.org/1999/xlink"
   xmlns="http://www.w3.org/2000/svg"
   xmlns:svg="http://www.w3.org/2000/svg"><defs
     id="defs1"><linearGradient
       x1="0"
       y1="0"
       x2="1"
       y2="0"
       gradientUnits="userSpaceOnUse"
       gradientTransform="matrix(1974.88,6199.67,6199.67,-1974.88,11616.5,7471.3)"
       spreadMethod="pad"
       id="linearGradient52"><stop
         style="stop-opacity:1;stop-color:#ffffff"
         offset="0"
         id="stop51" /><stop
         style="stop-opacity:1;stop-color:#ffffff"
         offset="1"
         id="stop52" /></linearGradient><clipPath
       clipPathUnits="userSpaceOnUse"
       id="clipPath52"><path
         d="m 10855.2,12756.6 v 0 0 0 0 0"
         transform="translate(0,2.5000001e-4)"
         id="path52" /></clipPath><linearGradient
       x1="0"
       y1="0"
       x2="1"
       y2="0"
       gradientUnits="userSpaceOnUse"
       gradientTransform="matrix(3033.38,-1744.48,-1744.48,-3033.38,6414.04,13261.3)"
       spreadMethod="pad"
       id="linearGradient79"><stop
         style="stop-opacity:1;stop-color:#ffffff"
         offset="0"
         id="stop78" /><stop
         style="stop-opacity:1;stop-color:#ffffff"
         offset="1"
         id="stop79" /></linearGradient><clipPath
       clipPathUnits="userSpaceOnUse"
       id="clipPath79"><path
         d="m 9082.7,13102.9 v 0 0 h -0.04"
         transform="translate(0,2.5000001e-4)"
         id="path79" /></clipPath><linearGradient
       x1="0"
       y1="0"
       x2="1"
       y2="0"
       gradientUnits="userSpaceOnUse"
       gradientTransform="matrix(-816.679,4783.4,4783.4,816.679,5709.01,5897.9)"
       spreadMethod="pad"
       id="linearGradient101"><stop
         style="stop-opacity:1;stop-color:#223436"
         offset="0"
         id="stop100" /><stop
         style="stop-opacity:1;stop-color:#223436"
         offset="1"
         id="stop101" /></linearGradient><clipPath
       clipPathUnits="userSpaceOnUse"
       id="clipPath101"><path
         d="m 4752.45,9344.4 c -0.59,0 -1.17,0 -1.77,0 h 3.53 c -0.59,0 -1.17,0 -1.76,0"
         transform="translate(0,2.5000001e-4)"
         id="path101" /></clipPath><clipPath
       clipPathUnits="userSpaceOnUse"
       id="clipPath52-9"><path
         d="m 10855.2,12756.6 v 0 0 0 0 0"
         transform="translate(0,2.5000001e-4)"
         id="path52-3" /></clipPath><clipPath
       clipPathUnits="userSpaceOnUse"
       id="clipPath79-6"><path
         d="m 9082.7,13102.9 v 0 0 h -0.04"
         transform="translate(0,2.5000001e-4)"
         id="path79-1" /></clipPath><clipPath
       clipPathUnits="userSpaceOnUse"
       id="clipPath101-0"><path
         d="m 4752.45,9344.4 c -0.59,0 -1.17,0 -1.77,0 h 3.53 c -0.59,0 -1.17,0 -1.76,0"
         transform="translate(0,2.5000001e-4)"
         id="path101-3" /></clipPath><linearGradient
       xlink:href="#linearGradient52"
       id="linearGradient15"
       gradientUnits="userSpaceOnUse"
       gradientTransform="matrix(1974.88,6199.67,6199.67,-1974.88,11616.5,7471.3)"
       x1="0"
       y1="0"
       x2="1"
       y2="0"
       spreadMethod="pad" /><linearGradient
       xlink:href="#linearGradient79"
       id="linearGradient16"
       gradientUnits="userSpaceOnUse"
       gradientTransform="matrix(3033.38,-1744.48,-1744.48,-3033.38,6414.04,13261.3)"
       x1="0"
       y1="0"
       x2="1"
       y2="0"
       spreadMethod="pad" /><linearGradient
       xlink:href="#linearGradient101"
       id="linearGradient17"
       gradientUnits="userSpaceOnUse"
       gradientTransform="matrix(-816.679,4783.4,4783.4,816.679,5709.01,5897.9)"
       x1="0"
       y1="0"
       x2="1"
       y2="0"
       spreadMethod="pad" /><linearGradient
       xlink:href="#linearGradient52"
       id="linearGradient18"
       gradientUnits="userSpaceOnUse"
       gradientTransform="matrix(1974.88,6199.67,6199.67,-1974.88,11616.5,7471.3)"
       x1="0"
       y1="0"
       x2="1"
       y2="0"
       spreadMethod="pad" /><linearGradient
       xlink:href="#linearGradient79"
       id="linearGradient19"
       gradientUnits="userSpaceOnUse"
       gradientTransform="matrix(3033.38,-1744.48,-1744.48,-3033.38,6414.04,13261.3)"
       x1="0"
       y1="0"
       x2="1"
       y2="0"
       spreadMethod="pad" /><linearGradient
       xlink:href="#linearGradient101"
       id="linearGradient20"
       gradientUnits="userSpaceOnUse"
       gradientTransform="matrix(-816.679,4783.4,4783.4,816.679,5709.01,5897.9)"
       x1="0"
       y1="0"
       x2="1"
       y2="0"
       spreadMethod="pad" /></defs><g
     id="layer1"
     transform="matrix(2.0562067,0,0,2.0562067,-91.236105,-55.85837)"><g
       id="group-R5"
       transform="matrix(0.09741585,0,0,0.09741585,-23.368079,25.246075)"><text
         xml:space="preserve"
         style="font-weight:bold;font-size:110.256px;font-family:Calibri;-inkscape-font-specification:'Calibri Bold';text-align:start;writing-mode:lr-tb;direction:ltr;text-anchor:start;fill:#ff6600;fill-opacity:1;stroke-width:3.30771"
         x="689.73425"
         y="772.69415"
         id="text1"
         transform="scale(0.99631574,1.0036979)"><tspan
           style="font-style:normal;font-variant:normal;font-weight:bold;font-stretch:normal;font-family:Tahoma;-inkscape-font-specification:'Tahoma Bold';fill:#ffffff;fill-opacity:1;stroke-width:3.30771"
           x="689.73425"
           y="772.69415"
           id="tspan2">FLOORING &amp; PAINTING</tspan></text><text
         xml:space="preserve"
         style="font-style:normal;font-variant:normal;font-weight:bold;font-stretch:normal;font-size:316.856px;font-family:Tahoma;-inkscape-font-specification:'Tahoma Bold';text-align:start;writing-mode:lr-tb;direction:ltr;text-anchor:start;fill:#ff6600;fill-opacity:1;stroke-width:9.5057"
         x="676.65674"
         y="660.11566"
         id="text3"
         transform="scale(0.99631574,1.0036979)"><tspan
           id="tspan3"
           style="fill:#ff6600;fill-opacity:1;stroke-width:9.5057"
           x="676.65674"
           y="660.11566">MASTER</tspan></text><g
         id="group-R5-7"
         transform="matrix(0.63777424,0,0,0.63777424,411.95638,-211.72304)"><path
           id="path51"
           d="m 10855.2,12756.6 v 0 0 0 0 0"
           style="fill:url(#linearGradient18);fill-opacity:1;fill-rule:nonzero;stroke:none"
           transform="matrix(0.13333333,0,0,-0.13333333,0,2666.6667)"
           clip-path="url(#clipPath52)" /><path
           id="path78"
           d="m 9082.7,13102.9 v 0 0 h -0.04"
           style="fill:url(#linearGradient19);fill-opacity:1;fill-rule:nonzero;stroke:none"
           transform="matrix(0.13333333,0,0,-0.13333333,0,2666.6667)"
           clip-path="url(#clipPath79)" /><path
           id="path100"
           d="m 4752.45,9344.4 c -0.59,0 -1.17,0 -1.77,0 h 3.53 c -0.59,0 -1.17,0 -1.76,0"
           style="fill:url(#linearGradient20);fill-opacity:1;fill-rule:nonzero;stroke:none"
           transform="matrix(0.13333333,0,0,-0.13333333,0,2666.6667)"
           clip-path="url(#clipPath101)" /><g
           id="group-R5-8"
           transform="matrix(0.72268582,0,0,0.72268582,170.5314,25.540503)"><path
             id="path51-3"
             d="m 10855.2,12756.6 v 0 0 0 0 0"
             style="fill:url(#linearGradient15);fill-opacity:1;fill-rule:nonzero;stroke:none"
             transform="matrix(0.13333333,0,0,-0.13333333,0,2666.6667)"
             clip-path="url(#clipPath52-9)" /><path
             id="path78-7"
             d="m 9082.7,13102.9 v 0 0 h -0.04"
             style="fill:url(#linearGradient16);fill-opacity:1;fill-rule:nonzero;stroke:none"
             transform="matrix(0.13333333,0,0,-0.13333333,0,2666.6667)"
             clip-path="url(#clipPath79-6)" /><path
             id="path100-1"
             d="m 4752.45,9344.4 c -0.59,0 -1.17,0 -1.77,0 h 3.53 c -0.59,0 -1.17,0 -1.76,0"
             style="fill:url(#linearGradient17);fill-opacity:1;fill-rule:nonzero;stroke:none"
             transform="matrix(0.13333333,0,0,-0.13333333,0,2666.6667)"
             clip-path="url(#clipPath101-0)" /><g
             id="group-R5-4"
             transform="matrix(1.5342003,0,0,1.5342003,-475.87338,-994.01229)"><path
               id="path3"
               d="m 16782.8,14290.6 c 52.7,-202.4 -421.4,-202.4 -537.8,-199.6 -36.1,-8.3 -22.2,-69.3 11.1,-72.1 313.2,-47.1 438,-55.5 751.2,-38.8 0,0 177.5,5.6 102.6,-108.1 -74.8,-116.5 -191.3,-63.8 -183,-91.5 5.6,-30.5 38.8,-49.9 47.1,-83.2 8.4,-24.9 -116.4,-24.9 -102.5,-58.2 13.9,-22.1 52.6,-30.5 44.3,-66.5 8.3,-80.4 -402,-91.5 -604.3,-135.8 -47.1,-25 -47.1,-49.9 0,-77.7 216.2,38.8 435.2,69.3 637.6,27.8 138.6,-94.3 -249.5,-91.5 -224.5,-169.1 -11.2,-41.6 155.2,-13.9 135.8,-80.5 -52.7,-22.1 -77.6,-52.6 -69.3,-94.2 0,-11.1 734.6,-49.9 712.5,-227.3 -22.2,-122 -271.8,-91.5 -285.6,-85.9 -271.7,16.6 -493.4,-22.2 -765.1,-5.6 -99.8,-38.8 -130.3,-85.9 -102.6,-141.4 194.1,-8.3 418.6,19.4 582.2,-22.2 5.5,-74.8 -274.5,-105.3 -219.1,-169.1 172,-27.7 354.9,-27.7 543.4,-11 58.2,-5.6 8.3,-88.8 -227.3,-174.7 11.1,-36 158,-77.6 113.7,-196.8 -30.5,-49.9 -435.3,-30.5 -651.5,-47.1 88.7,-94.3 554.4,0 593.3,-163.6 2.7,-99.8 -141.4,-49.9 -196.9,-113.7 -22.2,-47.1 174.7,-38.8 191.3,-110.9 -2.8,-49.9 -77.6,-49.9 -113.7,-74.8 -27.7,-91.5 568.3,-113.6 853.9,-169.1 63.7,-230.1 -970.3,-152.5 -1106.2,-152.5 -27.6,-138.6 244,-58.2 366,-85.9 55.4,-69.3 16.6,-113.7 -47.2,-127.6 H 7936.75 v 3312.8 l 8846.05,13.9"
               style="fill:#ff6600;fill-opacity:1;fill-rule:evenodd;stroke:none"
               transform="matrix(0.13333333,0,0,-0.13333333,0,2933.3333)" /><path
               id="path4"
               d="m 8241.69,11027.7 1413.8,2148.5 1463.71,-1053.4 1893.4,1535.7 1219.7,-1064.5 -191.2,230.1 v 493.5 l 341,219 371.4,-241.2 5.6,-1169.9 1286.3,-1125.5 5.5,-119.2 -7814.75,8.3 5.54,138.6"
               style="fill:#fdfdfd;fill-opacity:1;fill-rule:evenodd;stroke:none"
               transform="matrix(0.13333333,0,0,-0.13333333,0,2933.3333)" /><path
               id="path5"
               d="m 6772.4,14351.6 c 329.92,116.4 665.33,138.6 1006.34,0 0,-1125.5 0,-2251 0,-3379.3 -332.7,-88.7 -668.11,-88.7 -1006.34,0 0,1128.3 0,2253.8 0,3379.3 v 0"
               style="fill:#ffffff;fill-opacity:1;fill-rule:evenodd;stroke:none"
               transform="matrix(0.13333333,0,0,-0.13333333,0,2933.3333)" /><path
               id="path6"
               d="m 8399.7,11044.4 196.84,-11.1 1230.81,1896.1 -110.88,94.3 -1316.77,-1979.3"
               style="fill:#ff6600;fill-opacity:1;fill-rule:evenodd;stroke:none"
               transform="matrix(0.13333333,0,0,-0.13333333,0,2933.3333)" /><path
               id="path7"
               d="m 9918.84,13170.6 1183.76,-878.8 1100.5,901 z"
               style="fill:#fdfdfd;fill-opacity:1;fill-rule:evenodd;stroke:none"
               transform="matrix(0.13333333,0,0,-0.13333333,0,2933.3333)" /><path
               id="path8"
               d="m 13015.4,13486.6 -108.1,-108.1 2680.7,-2320.3 h 213.4 l -2786,2428.4"
               style="fill:#ff6600;fill-opacity:1;fill-rule:evenodd;stroke:none"
               transform="matrix(0.13333333,0,0,-0.13333333,0,2933.3333)" /><path
               id="path9"
               d="m 17137.6,14254.6 c -47.1,-49.9 -52.6,-99.8 -52.6,-99.8 -11.2,-30.6 36,-61 99.8,-55.5 33.2,22.2 47,49.9 38.7,88.7 -13.8,36 -49.9,63.8 -85.9,66.6 v 0"
               style="fill:#ff6600;fill-opacity:1;fill-rule:evenodd;stroke:none"
               transform="matrix(0.13333333,0,0,-0.13333333,0,2933.3333)" /><path
               id="path10"
               d="m 17287.3,14021.7 c -8.3,-38.8 -2.8,-61 16.7,-72.1 47.1,-2.8 83.1,8.3 113.6,25 2.8,30.4 -8.3,55.4 -47.1,72 -36.1,5.6 -63.8,-2.7 -83.2,-24.9 v 0"
               style="fill:#ff6600;fill-opacity:1;fill-rule:evenodd;stroke:none"
               transform="matrix(0.13333333,0,0,-0.13333333,0,2933.3333)" /><path
               id="path11"
               d="m 17254.1,13292.6 c 22.1,-24.9 44.3,-27.7 22.1,-69.3 -22.1,-36.1 -77.6,-49.9 -122,-49.9 -41.5,0 -85.9,38.8 -74.8,66.5 22.2,77.7 138.6,99.8 174.7,52.7 v 0"
               style="fill:#ff6600;fill-opacity:1;fill-rule:evenodd;stroke:none"
               transform="matrix(0.13333333,0,0,-0.13333333,0,2933.3333)" /><path
               id="path12"
               d="m 17403.8,13173.4 c 2.7,55.4 24.9,94.3 102.5,105.3 77.6,11.1 122,-11 155.3,-44.3 33.2,-33.3 74.8,-44.4 55.4,-85.9 -19.4,-44.4 -44.4,-66.6 -83.2,-41.6 -138.5,88.7 -232.8,-44.4 -230,66.5 v 0"
               style="fill:#ff6600;fill-opacity:1;fill-rule:evenodd;stroke:none"
               transform="matrix(0.13333333,0,0,-0.13333333,0,2933.3333)" /><path
               id="path13"
               d="m 17486.9,12009.1 c 41.6,-36.1 66.6,-36.1 47.1,-74.9 -16.6,-38.8 -38.7,-58.2 -80.3,-74.8 -80.5,-33.3 -163.6,85.9 -138.7,116.4 38.9,52.7 119.2,85.9 171.9,33.3 v 0"
               style="fill:#ff6600;fill-opacity:1;fill-rule:evenodd;stroke:none"
               transform="matrix(0.13333333,0,0,-0.13333333,0,2933.3333)" /><path
               id="path14"
               d="m 17664.3,11864.9 c 0,0 -49.9,0 -33.2,-38.8 19.3,-38.8 24.9,-49.9 58.2,-36 33.2,13.9 44.3,36 36,55.4 -8.3,19.4 -61,19.4 -61,19.4 v 0"
               style="fill:#ff6600;fill-opacity:1;fill-rule:evenodd;stroke:none"
               transform="matrix(0.13333333,0,0,-0.13333333,0,2933.3333)" /><path
               id="path15"
               d="m 17284.5,11615.4 c 0,11.1 -36,69.3 55.5,99.8 102.5,30.5 185.7,16.7 243.9,-91.5 16.7,-27.7 0,-97 -22.1,-94.2 -19.5,0 -88.8,38.8 -113.7,61 -27.7,22.2 -49.9,11.1 -88.7,-2.8 -36.1,-16.6 -74.9,27.7 -74.9,27.7 v 0"
               style="fill:#ff6600;fill-opacity:1;fill-rule:evenodd;stroke:none"
               transform="matrix(0.13333333,0,0,-0.13333333,0,2933.3333)" /><path
               id="path16"
               d="m 7143.92,14407 h 246.69 v 451.9 H 6367.66 l -255,-2198.4 -396.44,-5.5 v -235.6 l 546.09,8.3 260.64,2212.2 h 620.97 V 14407"
               style="fill:#ffffff;fill-opacity:1;fill-rule:evenodd;stroke:none"
               transform="matrix(0.13333333,0,0,-0.13333333,0,2933.3333)" /><path
               id="path17"
               d="m 5829.87,12752 c 0,-146.9 0,-296.6 0,-443.5 l -1344.51,-194.1 c -404.74,146.9 -407.51,657 -16.61,820.6 l 1361.12,-183"
               style="fill:#ffffff;fill-opacity:1;fill-rule:evenodd;stroke:none"
               transform="matrix(0.13333333,0,0,-0.13333333,0,2933.3333)" /><path
               id="path18"
               d="m 4335.66,12444.3 c 0,0 36.05,-169.1 210.68,-177.4 174.68,-8.3 903.76,94.2 903.76,94.2 -349.31,13.9 -906.53,-33.2 -1114.44,83.2 v 0"
               style="fill:#fdfdfd;fill-opacity:1;fill-rule:evenodd;stroke:none"
               transform="matrix(0.13333333,0,0,-0.13333333,0,2933.3333)" /><path
               id="path19"
               d="m 12940.5,12239.2 c 0,-110.9 0,-219 0,-332.7 -110.9,0 -221.8,0 -332.6,0 -25,219 116.4,368.7 332.6,332.7 v 0"
               style="fill:#ff6600;fill-opacity:1;fill-rule:evenodd;stroke:none"
               transform="matrix(0.13333333,0,0,-0.13333333,0,2933.3333)" /><path
               id="path20"
               d="m 12607.9,11485.1 h 332.6 v 332.7 h -332.6 v -332.7"
               style="fill:#ff6600;fill-opacity:1;fill-rule:evenodd;stroke:none"
               transform="matrix(0.13333333,0,0,-0.13333333,0,2933.3333)" /><path
               id="path21"
               d="m 13029.2,11485.1 h 332.7 v 332.7 h -332.7 v -332.7"
               style="fill:#ff6600;fill-opacity:1;fill-rule:evenodd;stroke:none"
               transform="matrix(0.13333333,0,0,-0.13333333,0,2933.3333)" /><path
               id="path22"
               d="m 13034.8,12239.2 c 0,-110.9 0,-219 0,-332.7 110.9,0 219,0 329.9,0 24.9,219 -116.4,368.7 -329.9,332.7 v 0"
               style="fill:#ff6600;fill-opacity:1;fill-rule:evenodd;stroke:none"
               transform="matrix(0.13333333,0,0,-0.13333333,0,2933.3333)" /><path
               id="path23"
               d="m 9921.61,11978.6 c 0,-94.3 0,-185.8 0,-280 -94.26,0 -188.48,0 -279.97,0 -22.2,183 99.81,310.5 279.97,280 v 0"
               style="fill:#ff6600;fill-opacity:1;fill-rule:evenodd;stroke:none"
               transform="matrix(0.13333333,0,0,-0.13333333,0,2933.3333)" /><path
               id="path24"
               d="m 9641.64,11343.8 h 279.97 v 279.9 h -279.97 v -279.9"
               style="fill:#ff6600;fill-opacity:1;fill-rule:evenodd;stroke:none"
               transform="matrix(0.13333333,0,0,-0.13333333,0,2933.3333)" /><path
               id="path25"
               d="m 9996.49,11343.8 h 280.01 v 279.9 h -280.01 v -279.9"
               style="fill:#ff6600;fill-opacity:1;fill-rule:evenodd;stroke:none"
               transform="matrix(0.13333333,0,0,-0.13333333,0,2933.3333)" /><path
               id="path26-9"
               d="m 9999.26,11978.6 c 0,-94.3 0,-185.8 0,-280 94.24,0 188.44,0 279.94,0 22.2,183 -99.8,310.5 -279.94,280 v 0"
               style="fill:#ff6600;fill-opacity:1;fill-rule:evenodd;stroke:none"
               transform="matrix(0.13333333,0,0,-0.13333333,0,2933.3333)" /></g></g></g></g></g></svg>
