<svg width="420" height="130" viewBox="0 0 420 130" xmlns="http://www.w3.org/2000/svg" role="img" aria-labelledby="title desc">
  <title id="title">Master Flooring and Painting</title>
  <desc id="desc">Orange and black house painting logo</desc>
  <rect x="0" y="0" width="420" height="130" fill="none"/>
  <g>
    <rect x="10" y="23" width="38" height="74" rx="8" fill="#0E0E10"/>
    <rect x="0" y="53" width="35" height="18" rx="9" fill="#0E0E10"/>
    <rect x="30" y="59" width="55" height="6" rx="3" fill="#0E0E10"/>
    <path d="M48 23 L57 0 L67 0 L60 23 Z" fill="#0E0E10"/>
  </g>
  <g transform="translate(84, 8)">
    <rect x="0" y="16" width="250" height="75" rx="8" fill="#FF6A00"/>
    <path d="M252 25 C268 27, 278 34, 284 48 C278 62, 269 72, 252 74" fill="#FF6A00"/>
    <path d="M14 88 L72 24 L135 69 L186 29 L244 88" fill="none" stroke="#F4F4F5" stroke-width="8" stroke-linecap="round" stroke-linejoin="round"/>
    <path d="M22 88 H238" stroke="#F4F4F5" stroke-width="8" stroke-linecap="round"/>
    <rect x="160" y="39" width="18" height="28" fill="#F4F4F5"/>
    <rect x="81" y="52" width="20" height="16" rx="2" fill="#FF6A00"/>
    <path d="M81 52 C81 44, 101 44, 101 52" fill="#FF6A00"/>
    <rect x="142" y="50" width="22" height="18" rx="2" fill="#FF6A00"/>
    <path d="M142 50 C142 41, 164 41, 164 50" fill="#FF6A00"/>
  </g>
  <text x="10" y="122" fill="#FF6A00" font-size="31" font-family="Segoe UI, Tahoma, sans-serif" font-weight="700" letter-spacing="1">
    MASTER FLOORING &amp; PAINTING
  </text>
</svg>
